<svg version="1.1" id="Layer_1" xmlns="http://www.w3.org/2000/svg" xmlns:xlink="http://www.w3.org/1999/xlink" x="0px" y="0px"
	 width="100%" viewBox="0 0 576 736" enable-background="new 0 0 576 736" xml:space="preserve">
<path fill="#000000" opacity="1.000000" stroke="none" 
	d="
M399.454102,737.000000 
	C399.335876,735.739807 399.671753,734.479614 400.053192,733.048462 
	C403.556549,732.580078 407.021790,731.983887 408.867432,736.658325 
	C405.969391,737.000000 402.938812,737.000000 399.454102,737.000000 
z"/>
<path fill="#000000" opacity="1.000000" stroke="none" 
	d="
M471.444153,737.000000 
	C470.675385,735.133118 470.327850,733.096680 473.028290,732.916748 
	C475.637115,732.742920 478.556824,732.432251 479.071228,736.604126 
	C476.629425,737.000000 474.258881,737.000000 471.444153,737.000000 
z"/>
<path fill="#000000" opacity="1.000000" stroke="none" 
	d="
M485.302643,608.688599 
	C485.199554,611.098450 483.859863,611.648071 482.254608,611.780029 
	C480.762817,611.902527 479.259979,611.932495 477.762024,611.932739 
	C358.457123,611.950562 239.152237,611.961914 119.847336,611.968750 
	C118.015274,611.968811 116.182198,611.934570 114.351402,611.867126 
	C111.948120,611.778687 110.672531,610.594299 110.764442,608.091614 
	C110.807220,606.927063 110.756569,605.759216 110.756523,604.592896 
	C110.750595,435.633148 110.745323,266.673401 110.741966,97.713646 
	C110.741943,96.214188 110.825279,94.712593 110.769150,93.215759 
	C110.673401,90.662590 111.896965,89.566704 114.391533,89.664192 
	C115.722054,89.716187 117.056923,89.649185 118.389824,89.649155 
	C164.712128,89.648201 211.034424,89.648643 257.356720,89.649422 
	C265.291870,89.649551 265.307831,89.650658 265.307739,97.484550 
	C265.306274,224.287674 265.300293,351.090790 265.295898,477.893921 
	C265.295654,485.678589 265.297882,485.676819 273.200317,485.676697 
	C341.517395,485.675598 409.834442,485.673889 478.151520,485.676392 
	C485.326782,485.676636 485.346283,485.688538 485.346161,492.750732 
	C485.345642,531.241150 485.334747,569.731628 485.302643,608.688599 
M251.661438,117.508423 
	C251.660660,114.676041 251.416824,111.817841 251.714355,109.017151 
	C252.198196,104.462555 250.515091,102.930374 245.863647,102.949493 
	C207.373230,103.107681 168.881607,103.126945 130.391281,102.964935 
	C125.471039,102.944229 124.258072,104.633156 124.261116,109.327179 
	C124.365616,270.456360 124.346764,431.585602 124.377586,592.714844 
	C124.377922,594.464600 123.776176,596.390015 125.321526,598.076965 
	C125.883255,598.124817 126.533455,598.228821 127.183632,598.228577 
	C239.989639,598.193604 352.795715,598.104187 465.601471,598.255310 
	C470.946472,598.262512 471.889404,596.675964 471.855438,591.844482 
	C471.655304,563.352539 471.758179,534.858398 471.760101,506.365051 
	C471.760590,499.314392 471.762329,499.307526 464.610413,499.307129 
	C396.626190,499.303497 328.641998,499.302643 260.657776,499.299225 
	C258.991608,499.299164 257.324280,499.235962 255.659500,499.278778 
	C252.987610,499.347412 251.620483,498.178497 251.688599,495.417664 
	C251.737900,493.419800 251.664154,491.419189 251.664108,489.419800 
	C251.661942,365.781830 251.661697,242.143890 251.661438,117.508423 
z"/>
</svg>